# xmcd
#
# Track frame offsets: 
#        150
#        13465
#        26569
#        37611
#        46851
#        59786
#        79063
#        92308
#        102493
#        116377
#        128936
#        140553
#        154144
#        170911
#        181229
#        195026
#        207963
#        221538
#        233346
#        248444
#        260120
#        272289
#        283566
#        300963
#        313403
#        325678
#
# Disc length: 4509 seconds
#
# Revision: 0
# Processed by: cddbd v1.5.2PL0 Copyright (c) Steve Scherf et al.
# Submitted via: ExactAudioCopy v1.0b3
#
DISCID=5e119b1a
DTITLE=Various Artist - The Spirit Of Country
DYEAR=1900
DGENRE=Country
TTITLE0=Gene Pitney - (The Man Who Shot) Liberty Valence
TTITLE1=Hank Williams - Jambalaya (On The Bayou)
TTITLE2=Roger Miller - King Of The Road
TTITLE3=Frankie Laine - Rawhide
TTITLE4=Johnny Horton - North To Alaska
TTITLE5=John Denver - Rocky Mountain High
TTITLE6=Kenny Rogers and The First Edition - Ruby, Don't Take Your Love 
TTITLE6=To Town
TTITLE7=Porter Wagoner - Green, Green Grass Of Home
TTITLE8=The Kingston Trio - Tom Dooley
TTITLE9=Frankie Laine - High Noon (Do Not Forsake Me)
TTITLE10=Johnny Horton - The Battle Of New Orleans
TTITLE11=Dean Martin - Rio Bravo
TTITLE12=Johnny Cash - (Ghost) Riders In The Sky
TTITLE13=Jim Reeves - Partners
TTITLE14=Bobby Bare - Miller's Cave
TTITLE15=Claude King - Wolverton Mountain
TTITLE16=Jimmy Dean - Big Bad John
TTITLE17=Tenessee Ernie Ford - Sixteen Tons
TTITLE18=Johnny Cash - A Boy Named Sue (Live)
TTITLE19=Henson Cargill - Skip A Rope
TTITLE20=Johnny Paycheck - Take This Job And Shove It
TTITLE21=The Kingston Trio - The Long Black Veil
TTITLE22=Ray Charles and Willie Nelson - Seven Spanish Angels (Live)
TTITLE23=Dean Martin - My Rifle, My Pony And Me
TTITLE24=Hugo Montenegro - For A Few Dollars More
TTITLE25=Hugo Montenegro - The Good, The Bad and The Ugly
EXTD=
EXTT0=
EXTT1=
EXTT2=
EXTT3=
EXTT4=
EXTT5=
EXTT6=
EXTT7=
EXTT8=
EXTT9=
EXTT10=
EXTT11=
EXTT12=
EXTT13=
EXTT14=
EXTT15=
EXTT16=
EXTT17=
EXTT18=
EXTT19=
EXTT20=
EXTT21=
EXTT22=
EXTT23=
EXTT24=
EXTT25=
PLAYORDER=
